<?xml version="1.0" encoding="utf-8" ?><svg xmlns="http://www.w3.org/2000/svg" xmlns:xlink="http://www.w3.org/1999/xlink" width="942" height="780" viewBox="0 0 942 780"><path fill="#EA5B2C" transform="matrix(6 0 0 6 0 3.05176e-05)" d="M75.1525 34.8641C86.391 34.5075 97.7462 34.7216 108.995 34.6938C115.579 34.6775 123.985 34.2027 130.354 34.8523C131.476 34.9667 132.445 35.2508 133.358 35.928C134.342 36.6579 134.787 37.5444 134.952 38.741C135.481 42.5783 133.08 46.5964 130.832 49.5295C120.133 63.4879 106.001 62.5868 90.1033 62.535C86.715 62.5239 83.2438 62.3598 79.8797 62.8068C86.053 64.6235 98.5758 67.1863 102.938 71.7261C104.024 72.8568 104.641 74.2421 104.604 75.8217C104.416 84.0571 89.9279 86.1067 83.8817 87.7366C81.2856 88.4364 78.6817 89.398 76.2198 90.4796C71.4207 92.5879 67.631 95.7236 63.8644 99.2956C60.093 102.978 56.7963 107.158 53.7393 111.44C51.942 113.959 50.2636 116.706 48.1875 118.996C47.4907 119.764 47.0347 120.296 45.9831 120.348C45.2645 119.999 44.6663 119.461 44.3704 118.698C42.7307 114.474 46.9525 102.726 48.7182 98.651C51.0985 93.1575 53.9261 87.6782 58.1288 83.3561C65.5713 75.7022 73.6776 75.5238 83.7937 75.2093C88.1482 75.0739 92.4535 75.2621 96.5699 73.6367C90.1333 67.9149 69.6096 68.9079 58.9726 59.2688C56.2528 56.8041 53.8506 53.1663 53.688 49.4081C53.5475 46.1613 55.1149 42.9547 57.2821 40.6097C61.6987 35.8309 69.0486 35.0962 75.1525 34.8641Z"/><path fill="#EA5B2C" transform="matrix(6 0 0 6 0 3.05176e-05)" d="M75.9276 10.8443C75.9847 10.8324 76.0001 10.8281 76.0658 10.8206C85.0015 9.79108 95.7853 12.0821 103.663 16.3646C106.048 17.6613 108.418 19.4909 110.567 21.1426C111.745 22.0471 113.568 23.2857 113.768 24.8214C113.251 25.0893 112.28 24.8557 111.685 24.7718C104.808 23.8019 98.3714 22.3148 91.3616 21.7628C78.1791 20.7247 63.1575 23.4359 52.8621 32.2474C43.2773 40.4507 39.0468 51.7109 38.1041 64.023C37.7451 71.2797 39.5192 78.0868 42.5491 84.611C43.4849 86.6258 44.8481 88.6758 45.4348 90.8093C45.3124 91.271 45.2624 91.3186 44.8637 91.5813C44.4021 91.5624 44.0591 91.3628 43.7042 91.0849C42.398 90.0621 41.2526 88.4743 40.2513 87.162C35.0286 80.317 32.5287 72.7467 31.499 64.2835C30.0283 52.1964 33.112 39.4713 40.6449 29.8608C49.3247 18.7871 62.1037 12.5148 75.9276 10.8443Z"/></svg>